<svg width="25" height="25" viewBox="0 0 25 25" fill="none" xmlns="http://www.w3.org/2000/svg">
<path d="M23.1971 10.9405V5.66984C23.1971 4.68534 22.4528 3.56879 21.5283 3.1966L14.841 0.45923C13.3402 -0.153077 11.6474 -0.153077 10.1466 0.45923L3.45932 3.1966C2.54686 3.56879 1.80249 4.68534 1.80249 5.66984V10.9405C1.80249 16.8114 6.06462 22.3102 11.8875 23.919C12.2837 24.027 12.7159 24.027 13.1121 23.919C18.935 22.3102 23.1971 16.8114 23.1971 10.9405ZM13.4002 13.0415V16.1991C13.4002 16.6913 12.992 17.0995 12.4998 17.0995C12.0075 17.0995 11.5993 16.6913 11.5993 16.1991V13.0415C10.3867 12.6573 9.49834 11.5288 9.49834 10.1961C9.49834 8.53927 10.843 7.1946 12.4998 7.1946C14.1566 7.1946 15.5013 8.53927 15.5013 10.1961C15.5013 11.5408 14.6129 12.6573 13.4002 13.0415Z" fill="url(#paint0_radial_1_968)"/>
<defs>
<radialGradient id="paint0_radial_1_968" cx="0" cy="0" r="1" gradientUnits="userSpaceOnUse" gradientTransform="translate(2.41728 9) rotate(24.3521) scale(23.2816 185.826)">
<stop stop-color="#0F9D41"/>
<stop offset="0.498228" stop-color="#17D75B"/>
<stop offset="1" stop-color="#0F9D41"/>
</radialGradient>
</defs>
</svg>
