<svg width="18" height="18" viewBox="0 0 18 18" fill="none" xmlns="http://www.w3.org/2000/svg">
<path d="M14.425 6.15029C12.8533 6.15029 11.5752 4.87218 11.5752 3.30055C11.5752 1.72891 12.8533 0.450806 14.425 0.450806C15.9966 0.450806 17.2747 1.72891 17.2747 3.30055C17.2747 4.87218 15.9966 6.15029 14.425 6.15029ZM11.9087 11.3154H11.3985V12.3649L11.9079 12.3627C12.1972 12.3627 12.4316 12.1283 12.4316 11.8391C12.4316 11.5498 12.1972 11.3154 11.9079 11.3154H11.9087ZM8.34648 11.3154H7.83637V12.3649L8.34576 12.3627C8.63501 12.3627 8.8694 12.1283 8.8694 11.8391C8.8694 11.5498 8.63501 11.3154 8.34576 11.3154H8.34648ZM4.32549 11.4729L3.93223 13.0965H4.96597L4.59978 11.47C4.62472 11.2941 4.29771 11.3048 4.32549 11.4729ZM14.425 7.57516C12.0675 7.57516 10.1504 5.65728 10.1504 3.30055C10.1504 2.80042 10.2408 2.32237 10.3997 1.87568H3.73845C1.77426 1.87568 0.17627 3.47367 0.17627 5.43785V13.9871C0.17627 15.9513 1.77426 17.5493 3.73845 17.5493H12.2877C14.2519 17.5493 15.8498 15.9513 15.8498 13.9871V7.32581C15.4031 7.48468 14.9251 7.57516 14.425 7.57516ZM5.71047 14.6995C5.49674 14.7152 5.29725 14.577 5.25095 14.3654L5.16545 13.9871H3.71565L3.62232 14.3725C3.57601 14.5641 3.40431 14.6995 3.20626 14.6995C2.93126 14.6995 2.7275 14.4437 2.78948 14.1759L3.45632 11.2734C3.55749 10.7248 4.0106 10.4477 4.46371 10.4477C4.92038 10.4477 5.37776 10.7291 5.47323 11.2976L6.12724 14.1773C6.1878 14.4452 5.98475 14.7002 5.70975 14.7002L5.71047 14.6995ZM8.31157 13.2533H7.83495V14.2542C7.83495 14.5 7.63547 14.6995 7.38968 14.6995C7.14389 14.6995 6.9444 14.5 6.9444 14.2542V10.8702C6.9444 10.6244 7.14389 10.4249 7.38968 10.4249H8.34576C9.14369 10.4249 9.78773 11.086 9.75924 11.8904C9.73216 12.657 9.07886 13.2533 8.31228 13.2533H8.31157ZM11.8737 13.2533H11.3971V14.2542C11.3971 14.5 11.1976 14.6995 10.9519 14.6995C10.7061 14.6995 10.5066 14.5 10.5066 14.2542V10.8702C10.5066 10.6244 10.7061 10.4249 10.9519 10.4249H11.9079C12.7059 10.4249 13.3499 11.086 13.3214 11.8904C13.2943 12.657 12.6403 13.2533 11.8737 13.2533Z" fill="url(#paint0_radial_1_825)"/>
<defs>
<radialGradient id="paint0_radial_1_825" cx="0" cy="0" r="1" gradientUnits="userSpaceOnUse" gradientTransform="translate(0.667605 6.86272) rotate(21.973) scale(18.2788 134.762)">
<stop stop-color="#0F9D41"/>
<stop offset="0.498228" stop-color="#17D75B"/>
<stop offset="1" stop-color="#0F9D41"/>
</radialGradient>
</defs>
</svg>
