<svg width="25" height="16" viewBox="0 0 25 16" fill="none" xmlns="http://www.w3.org/2000/svg">
<path d="M24.4898 14.9136H0.510204C0.228571 14.9136 0 15.1571 0 15.457C0 15.7569 0.228571 16.0004 0.510204 16.0004H24.4898C24.7714 16.0004 25 15.7569 25 15.457C25 15.1571 24.7714 14.9136 24.4898 14.9136Z" fill="white"/>
<path d="M24.4898 7.45654H0.510204C0.228571 7.45654 0 7.69997 0 7.99991C0 8.29985 0.228571 8.54327 0.510204 8.54327H24.4898C24.7714 8.54327 25 8.29985 25 7.99991C25 7.69997 24.7714 7.45654 24.4898 7.45654Z" fill="white"/>
<path d="M24.4898 0H0.510204C0.228571 0 0 0.243429 0 0.543368C0 0.843307 0.228571 1.08674 0.510204 1.08674H24.4898C24.7714 1.08674 25 0.843307 25 0.543368C25 0.243429 24.7714 0 24.4898 0Z" fill="white"/>
</svg>
