<svg width="25" height="26" viewBox="0 0 25 26" fill="none" xmlns="http://www.w3.org/2000/svg">
<g clip-path="url(#clip0_1_959)">
<path d="M18.75 12.6663C17.6525 12.6675 16.574 12.3795 15.6234 11.831C14.6727 11.2826 13.8834 10.4933 13.335 9.54259C12.7867 8.59188 12.4987 7.51341 12.5 6.41589C12.5014 5.31838 12.792 4.24062 13.3427 3.29126H4.41875L4.375 2.92459C4.28523 2.1648 3.91985 1.46434 3.34811 0.955952C2.77637 0.447566 2.03799 0.166586 1.27292 0.16626L1.04167 0.16626C0.765399 0.16626 0.500448 0.276006 0.305097 0.471357C0.109747 0.666707 0 0.931659 0 1.20793C0 1.48419 0.109747 1.74915 0.305097 1.9445C0.500448 2.13985 0.765399 2.24959 1.04167 2.24959H1.27292C1.52806 2.24963 1.77431 2.3433 1.96497 2.51284C2.15563 2.68238 2.27744 2.916 2.30729 3.16938L3.74062 15.3569C3.88943 16.6244 4.49841 17.7931 5.45199 18.6413C6.40556 19.4894 7.63735 19.958 8.91354 19.9579H19.7917C20.0679 19.9579 20.3329 19.8482 20.5282 19.6528C20.7236 19.4575 20.8333 19.1925 20.8333 18.9163C20.8333 18.64 20.7236 18.375 20.5282 18.1797C20.3329 17.9843 20.0679 17.8746 19.7917 17.8746H8.91354C8.26863 17.873 7.64001 17.6719 7.1139 17.2989C6.58779 16.9259 6.18997 16.3993 5.975 15.7913H18.3927C19.6138 15.7913 20.7962 15.3623 21.7331 14.5792C22.6701 13.7961 23.3021 12.7087 23.5187 11.5069L23.7667 10.1329C23.1872 10.9185 22.4314 11.557 21.56 11.9971C20.6887 12.4371 19.7262 12.6663 18.75 12.6663Z" fill="url(#paint0_radial_1_959)"/>
<path d="M7.29159 25.1662C8.44218 25.1662 9.37492 24.2334 9.37492 23.0828C9.37492 21.9323 8.44218 20.9995 7.29159 20.9995C6.14099 20.9995 5.20825 21.9323 5.20825 23.0828C5.20825 24.2334 6.14099 25.1662 7.29159 25.1662Z" fill="url(#paint1_radial_1_959)"/>
<path d="M17.7083 25.1662C18.8589 25.1662 19.7917 24.2334 19.7917 23.0828C19.7917 21.9323 18.8589 20.9995 17.7083 20.9995C16.5577 20.9995 15.625 21.9323 15.625 23.0828C15.625 24.2334 16.5577 25.1662 17.7083 25.1662Z" fill="url(#paint2_radial_1_959)"/>
<path d="M16.3885 9.4848C16.5676 9.6783 16.7841 9.83344 17.0249 9.94087C17.2658 10.0483 17.5259 10.1058 17.7895 10.1098H17.8239C18.0823 10.1107 18.3383 10.0602 18.577 9.96129C18.8157 9.8624 19.0324 9.71708 19.2145 9.53376L23.6645 5.08376C23.8608 4.88789 23.9712 4.62206 23.9715 4.34476C23.9718 4.06746 23.8619 3.8014 23.6661 3.60512C23.4702 3.40883 23.2044 3.29839 22.9271 3.2981C22.6498 3.2978 22.3837 3.40768 22.1874 3.60355L17.826 7.9723L16.5406 6.59314C16.3519 6.39105 16.0906 6.27219 15.8143 6.26272C15.538 6.25324 15.2692 6.35392 15.0671 6.54262C14.865 6.73131 14.7462 6.99255 14.7367 7.26887C14.7272 7.54519 14.8279 7.81396 15.0166 8.01605L16.3885 9.4848Z" fill="url(#paint3_radial_1_959)"/>
</g>
<defs>
<radialGradient id="paint0_radial_1_959" cx="0" cy="0" r="1" gradientUnits="userSpaceOnUse" gradientTransform="translate(0.682951 7.58813) rotate(18.5722) scale(24.8562 159.448)">
<stop stop-color="#0F9D41"/>
<stop offset="0.498228" stop-color="#17D75B"/>
<stop offset="1" stop-color="#0F9D41"/>
</radialGradient>
<radialGradient id="paint1_radial_1_959" cx="0" cy="0" r="1" gradientUnits="userSpaceOnUse" gradientTransform="translate(5.32798 22.562) rotate(21.973) scale(4.45431 32.8397)">
<stop stop-color="#0F9D41"/>
<stop offset="0.498228" stop-color="#17D75B"/>
<stop offset="1" stop-color="#0F9D41"/>
</radialGradient>
<radialGradient id="paint2_radial_1_959" cx="0" cy="0" r="1" gradientUnits="userSpaceOnUse" gradientTransform="translate(15.7447 22.562) rotate(21.973) scale(4.45431 32.8397)">
<stop stop-color="#0F9D41"/>
<stop offset="0.498228" stop-color="#17D75B"/>
<stop offset="1" stop-color="#0F9D41"/>
</radialGradient>
<radialGradient id="paint3_radial_1_959" cx="0" cy="0" r="1" gradientUnits="userSpaceOnUse" gradientTransform="translate(15.0015 5.85249) rotate(16.5725) scale(9.55265 55.4872)">
<stop stop-color="#0F9D41"/>
<stop offset="0.498228" stop-color="#17D75B"/>
<stop offset="1" stop-color="#0F9D41"/>
</radialGradient>
<clipPath id="clip0_1_959">
<rect width="25" height="25" fill="white" transform="translate(0 0.16626)"/>
</clipPath>
</defs>
</svg>
