<svg width="18" height="18" viewBox="0 0 18 18" fill="none" xmlns="http://www.w3.org/2000/svg">
<g clip-path="url(#clip0_1_816)">
<path d="M16.3121 14.3931C16.3667 14.5982 16.3664 14.8141 16.3113 15.0191C16.2562 15.224 16.1482 15.4109 15.9981 15.561C15.8481 15.7111 15.6612 15.8191 15.4562 15.8742C15.2512 15.9293 15.0354 15.9296 14.8303 15.875L13.441 15.5045C12.6431 15.9139 11.7588 16.1264 10.862 16.1244C10.5758 16.1243 10.2901 16.1028 10.0071 16.0602C8.90718 15.886 7.88342 15.3903 7.06473 14.6354C7.26421 14.6354 7.45657 14.6354 7.65605 14.5926C8.68687 14.439 9.67142 14.061 10.5403 13.4854C11.4091 12.9098 12.1411 12.1506 12.6846 11.2613C13.2281 10.372 13.5698 9.37433 13.6858 8.33859C13.8017 7.30284 13.689 6.25428 13.3555 5.26684C14.1919 5.66764 14.9178 6.26648 15.4703 7.01139C16.0227 7.7563 16.3851 8.62478 16.5259 9.54145C16.7059 10.7161 16.5115 11.9175 15.9702 12.9754L16.3121 14.3931ZM10.6127 3.54275C9.86688 2.79853 8.92941 2.2756 7.90436 2.03202C6.87932 1.78845 5.80681 1.83377 4.80597 2.16296C3.80513 2.49215 2.91512 3.09231 2.23479 3.89679C1.55446 4.70128 1.11044 5.6786 0.952034 6.72021C0.771983 7.89481 0.966412 9.09629 1.50773 10.1541L1.13727 11.579C1.0795 11.784 1.07813 12.0007 1.13331 12.2063C1.18848 12.412 1.29815 12.5989 1.45074 12.7474C1.59924 12.9 1.78617 13.0097 1.99182 13.0648C2.19747 13.12 2.4142 13.1187 2.61913 13.0609L4.00838 12.6904C4.80937 13.0875 5.6935 13.2877 6.5874 13.2746C7.7153 13.2755 8.81811 12.9417 9.75621 12.3155C10.6943 11.6893 11.4255 10.7988 11.8573 9.75684C12.289 8.71484 12.4019 7.56817 12.1816 6.46199C11.9613 5.3558 11.4178 4.33985 10.6198 3.54275H10.6127Z" fill="url(#paint0_radial_1_816)"/>
</g>
<defs>
<radialGradient id="paint0_radial_1_816" cx="0" cy="0" r="1" gradientUnits="userSpaceOnUse" gradientTransform="translate(1.338 7.22015) rotate(20.104) scale(16.5792 113.704)">
<stop stop-color="#0F9D41"/>
<stop offset="0.498228" stop-color="#17D75B"/>
<stop offset="1" stop-color="#0F9D41"/>
</radialGradient>
<clipPath id="clip0_1_816">
<rect width="17.0984" height="17.0984" fill="white" transform="translate(0.17627 0.450806)"/>
</clipPath>
</defs>
</svg>
