<svg width="24" height="24" viewBox="0 0 24 24" fill="none" xmlns="http://www.w3.org/2000/svg">
<g clip-path="url(#clip0_1_994)">
<path d="M24 3V5C24 6.657 22.657 8 21 8H20V9C20 10.657 18.657 12 17 12H13V15.395L14.295 14.101C14.686 13.71 15.318 13.71 15.709 14.101C16.1 14.492 16.1 15.124 15.709 15.515L13.234 17.991C12.894 18.331 12.448 18.501 12.002 18.501C11.556 18.501 11.11 18.331 10.771 17.991L8.295 15.515C7.904 15.124 7.904 14.492 8.295 14.101C8.686 13.71 9.318 13.71 9.709 14.101L11.001 15.393V11.999H7C5.343 11.999 4 10.656 4 8.999V7.999H3C1.343 7.999 0 6.656 0 4.999V3C0 1.343 1.343 0 3 0H7C8.657 0 10 1.343 10 3V5C10 6.657 8.657 8 7 8H6V9C6 9.552 6.448 10 7 10H17C17.552 10 18 9.552 18 9V8H17C15.343 8 14 6.657 14 5V3C14 1.343 15.343 0 17 0H21C22.657 0 24 1.343 24 3ZM21 15H17.982C17.937 15.703 17.659 16.394 17.123 16.93L14.743 19.311C14.183 19.871 13.481 20.298 12.701 20.438C11.447 20.663 10.225 20.275 9.356 19.405L6.88 16.929C6.344 16.393 6.066 15.702 6.021 14.999H3C1.343 14.999 0 16.342 0 17.999V20.999C0 22.656 1.343 23.999 3 23.999H21C22.657 23.999 24 22.656 24 20.999V17.999C24 16.342 22.657 14.999 21 14.999V15Z" fill="url(#paint0_radial_1_994)"/>
</g>
<defs>
<radialGradient id="paint0_radial_1_994" cx="0" cy="0" r="1" gradientUnits="userSpaceOnUse" gradientTransform="translate(0.689656 8.99962) rotate(21.9722) scale(25.6567 189.15)">
<stop stop-color="#0F9D41"/>
<stop offset="0.498228" stop-color="#17D75B"/>
<stop offset="1" stop-color="#0F9D41"/>
</radialGradient>
<clipPath id="clip0_1_994">
<rect width="24" height="24" fill="white"/>
</clipPath>
</defs>
</svg>
