<svg width="19" height="26" viewBox="0 0 19 26" fill="none" xmlns="http://www.w3.org/2000/svg">
<path d="M3.25 25.5H5.46875C5.93494 25.4956 6.38645 25.3364 6.7524 25.0476C7.11835 24.7588 7.37802 24.3566 7.49062 23.9042C7.61122 23.4637 7.8732 23.0751 8.23626 22.7981C8.59931 22.5211 9.04333 22.371 9.5 22.371C9.95667 22.371 10.4007 22.5211 10.7637 22.7981C11.1268 23.0751 11.3888 23.4637 11.5094 23.9042C11.622 24.3566 11.8816 24.7588 12.2476 25.0476C12.6135 25.3364 13.0651 25.4956 13.5312 25.5H15.75C16.5788 25.5 17.3737 25.1708 17.9597 24.5847C18.5458 23.9987 18.875 23.2038 18.875 22.375V18.2083H14.7083C14.4321 18.2083 14.1671 18.0986 13.9718 17.9032C13.7764 17.7079 13.6667 17.4429 13.6667 17.1667C13.6667 16.8904 13.7764 16.6254 13.9718 16.4301C14.1671 16.2347 14.4321 16.125 14.7083 16.125H18.875V5.70833C18.8733 4.32751 18.3241 3.00371 17.3477 2.02731C16.3713 1.05092 15.0475 0.501654 13.6667 0.5L13.5312 0.5C13.0651 0.504429 12.6135 0.663555 12.2476 0.952395C11.8816 1.24123 11.622 1.64343 11.5094 2.09583C11.3888 2.53629 11.1268 2.92492 10.7637 3.20193C10.4007 3.47895 9.95667 3.62899 9.5 3.62899C9.04333 3.62899 8.59931 3.47895 8.23626 3.20193C7.8732 2.92492 7.61122 2.53629 7.49062 2.09583C7.37802 1.64343 7.11835 1.24123 6.7524 0.952395C6.38645 0.663555 5.93494 0.504429 5.46875 0.5L5.33333 0.5C3.95251 0.501654 2.62871 1.05092 1.65231 2.02731C0.675919 3.00371 0.126654 4.32751 0.125 5.70833V16.125H4.29167C4.56793 16.125 4.83289 16.2347 5.02824 16.4301C5.22359 16.6254 5.33333 16.8904 5.33333 17.1667C5.33333 17.4429 5.22359 17.7079 5.02824 17.9032C4.83289 18.0986 4.56793 18.2083 4.29167 18.2083H0.125V22.375C0.125 23.2038 0.45424 23.9987 1.04029 24.5847C1.62634 25.1708 2.4212 25.5 3.25 25.5ZM8.45833 16.125H10.5417C10.8179 16.125 11.0829 16.2347 11.2782 16.4301C11.4736 16.6254 11.5833 16.8904 11.5833 17.1667C11.5833 17.4429 11.4736 17.7079 11.2782 17.9032C11.0829 18.0986 10.8179 18.2083 10.5417 18.2083H8.45833C8.18207 18.2083 7.91711 18.0986 7.72176 17.9032C7.52641 17.7079 7.41667 17.4429 7.41667 17.1667C7.41667 16.8904 7.52641 16.6254 7.72176 16.4301C7.91711 16.2347 8.18207 16.125 8.45833 16.125Z" fill="url(#paint0_radial_1_941)"/>
<defs>
<radialGradient id="paint0_radial_1_941" cx="0" cy="0" r="1" gradientUnits="userSpaceOnUse" gradientTransform="translate(0.663794 9.87499) rotate(28.279) scale(21.1075 187.114)">
<stop stop-color="#0F9D41"/>
<stop offset="0.498228" stop-color="#17D75B"/>
<stop offset="1" stop-color="#0F9D41"/>
</radialGradient>
</defs>
</svg>
