<svg width="23" height="24" viewBox="0 0 23 24" fill="none" xmlns="http://www.w3.org/2000/svg">
<path d="M11.5 0.120605C5.14892 0.120605 0.000244141 5.26944 0.000244141 11.6205C0.000244141 17.9714 5.14892 23.1206 11.5 23.1206C17.851 23.1206 23.0001 17.9714 23.0001 11.6205C23.0001 5.26944 17.851 0.120605 11.5 0.120605ZM11.5002 4.15991L18.3054 8.40345H4.69497L11.5002 4.15991ZM18.3902 15.1799H18.3895C18.3895 15.8605 17.8379 16.4121 17.1573 16.4121H5.84307C5.16242 16.4121 4.61087 15.8604 4.61087 15.1799V8.67347C4.61087 8.60148 4.61823 8.53148 4.63019 8.46271L11.1322 12.5171C11.1402 12.5221 11.1487 12.5255 11.1569 12.5301C11.1655 12.5348 11.1742 12.5394 11.183 12.5438C11.2289 12.5675 11.2762 12.5866 11.3246 12.5991C11.3295 12.6005 11.3345 12.6011 11.3395 12.6022C11.3926 12.6147 11.4463 12.6225 11.5 12.6225H11.5004C11.5007 12.6225 11.5011 12.6225 11.5011 12.6225C11.5548 12.6225 11.6085 12.6149 11.6616 12.6022C11.6666 12.601 11.6716 12.6005 11.6765 12.5991C11.7248 12.5866 11.772 12.5675 11.8181 12.5438C11.8269 12.5394 11.8356 12.5348 11.8442 12.5301C11.8523 12.5255 11.8609 12.5221 11.8689 12.5171L18.3709 8.46271C18.3829 8.53148 18.3902 8.60133 18.3902 8.67347V15.1799Z" fill="#0F9D41"/>
</svg>
