<svg width="25" height="25" viewBox="0 0 25 25" fill="none" xmlns="http://www.w3.org/2000/svg">
<g clip-path="url(#clip0_1_903)">
<path d="M16.1219 19.3855C16.1219 18.049 15.2803 17.2719 13.6667 15.9021C13.3021 15.5896 12.9084 15.2584 12.5021 14.8896C12.0386 15.3157 11.598 15.6907 11.1938 16.0355C9.58338 17.3959 8.87817 18.0615 8.87817 19.3855C8.87817 20.3461 9.25976 21.2673 9.939 21.9465C10.6182 22.6258 11.5395 23.0074 12.5 23.0074C13.4606 23.0074 14.3819 22.6258 15.0611 21.9465C15.7403 21.2673 16.1219 20.3461 16.1219 19.3855Z" fill="url(#paint0_radial_1_903)"/>
<path d="M17.0918 4.20312C15.8418 3.14167 14.5501 2.04479 13.2438 0.739583L12.5001 0L11.7709 0.740625C9.42301 3.09687 8.31259 6.71562 7.83134 8.88646C7.46205 8.31464 7.18801 7.68669 7.01988 7.02708L6.57509 5.32188L5.29072 6.52708C3.04176 8.63958 1.54072 10.7344 1.54072 14.0885C1.51909 16.5089 2.30692 18.867 3.77904 20.7883C5.25115 22.7096 7.32311 24.0839 9.66572 24.6927C10.2543 24.8418 10.8537 24.9446 11.4584 25C10.1473 24.7556 8.96269 24.0608 8.1096 23.0355C7.2565 22.0103 6.78851 20.7192 6.78655 19.3854C6.78655 17.0417 8.20009 15.8437 9.83655 14.4458C10.4209 13.949 11.0866 13.3854 11.7584 12.7094L12.5001 11.9719L13.2376 12.7094C13.8376 13.3094 14.4376 13.8177 15.0178 14.3115C16.6595 15.7042 18.2095 17.0198 18.2095 19.3854C18.2078 20.7139 17.7436 22.0003 16.8965 23.0238C16.0495 24.0472 14.8725 24.7437 13.5678 24.9937C16.2767 24.7309 18.7906 23.4685 20.6192 21.4527C22.4478 19.4369 23.46 16.8123 23.4584 14.0906C23.4584 9.60938 20.5074 7.10417 17.0918 4.20312Z" fill="url(#paint1_radial_1_903)"/>
</g>
<defs>
<radialGradient id="paint0_radial_1_903" cx="0" cy="0" r="1" gradientUnits="userSpaceOnUse" gradientTransform="translate(9.08633 17.9338) rotate(24.3305) scale(7.88129 62.864)">
<stop stop-color="#0F9D41"/>
<stop offset="0.498228" stop-color="#17D75B"/>
<stop offset="1" stop-color="#0F9D41"/>
</radialGradient>
<radialGradient id="paint1_radial_1_903" cx="0" cy="0" r="1" gradientUnits="userSpaceOnUse" gradientTransform="translate(2.17012 9.37499) rotate(24.7124) scale(23.9198 193.014)">
<stop stop-color="#0F9D41"/>
<stop offset="0.498228" stop-color="#17D75B"/>
<stop offset="1" stop-color="#0F9D41"/>
</radialGradient>
<clipPath id="clip0_1_903">
<rect width="25" height="25" fill="white"/>
</clipPath>
</defs>
</svg>
