<svg width="86" height="36" viewBox="0 0 86 36" fill="none" xmlns="http://www.w3.org/2000/svg">
<path d="M9.48238 35.1313C6.60813 34.8069 3.62578 33.5436 1.81514 31.8847C1.38004 31.486 1.33825 31.4143 1.27011 30.9498C1.17967 30.3328 1.27792 26.5316 1.38603 26.4661C1.42886 26.44 1.75211 26.6979 2.10449 27.0391C3.63041 28.5175 6.0713 29.7546 8.48807 30.2743C9.47929 30.4877 11.6162 30.5383 12.5871 30.3713C15.7248 29.8319 18.1107 27.501 18.408 24.6819C18.4387 24.3916 18.437 24.154 18.4043 24.154C18.3716 24.154 18.1151 24.3077 17.8342 24.4954C16.6963 25.2562 15.2148 25.8636 13.5933 26.2351C12.6223 26.4573 10.2751 26.4573 9.30411 26.2351C6.07565 25.4961 3.75347 23.9719 2.03355 21.4626C0.64372 19.435 -0.073395 16.7281 0.156313 14.3755C0.678369 9.02816 4.69547 4.92642 10.1071 4.20907C12.5297 3.89002 15.4802 4.56689 17.6035 5.92882C18.0082 6.18849 18.362 6.37861 18.3897 6.35134C18.4174 6.32408 18.44 5.96606 18.44 5.5557V4.80965H22.6424L22.6647 8.75841L22.6869 12.7072L23.0125 11.7896C23.6113 10.1022 24.4786 8.69219 25.6194 7.55013C27.1984 5.971 28.9405 4.98761 31.088 4.46314C35.2507 3.44744 39.7175 4.89688 42.4479 8.15156C43.4672 9.36489 44.1843 10.678 44.6591 12.2001C44.8161 12.7037 44.8172 12.6669 44.839 6.35106L44.861 -0.00439453H49.0633V4.80994H58.243V8.94683L49.1058 8.99053L49.1062 12.6219C49.1067 16.6648 49.1159 16.7455 49.7126 17.9446C50.4746 19.4762 51.919 20.6002 53.7383 21.0781C54.6106 21.3074 57.6655 21.3082 58.5429 21.0794C60.3284 20.6138 61.7732 19.4774 62.5338 17.942C62.9666 17.0682 63.1027 16.4361 63.1699 14.989C63.2001 14.3402 63.2845 13.5239 63.3577 13.1752C63.8721 10.7238 65.2001 8.44542 67.0069 6.91475C69.278 4.99073 71.9621 4.052 74.8865 4.15936C83.7235 4.48203 88.7559 14.0978 83.9339 21.4233C83.3357 22.3319 81.716 23.9412 80.8174 24.5179C78.7307 25.8595 76.4578 26.4923 74.0709 26.3973C71.9524 26.3129 70.1157 25.7542 68.4083 24.6747C67.5158 24.1105 66.4761 23.22 65.8738 22.5027C65.58 22.153 65.3135 21.8669 65.2814 21.8669C65.2494 21.8669 64.9498 22.1847 64.6156 22.573C62.6535 24.8533 59.5843 26.2462 56.1782 26.402C51.2153 26.6299 46.4397 23.048 45.214 18.1758C45.0937 17.6975 44.9702 17.3062 44.9393 17.3062C44.9084 17.3062 44.8182 17.6007 44.7386 17.9607C44.282 20.0273 42.8315 22.3295 41.0787 23.7661C39.5181 25.0459 37.8773 25.8127 35.7163 26.2735C34.8984 26.4476 32.4386 26.4207 31.598 26.2286C28.3936 25.4952 25.9836 23.9007 24.3081 21.4057C23.7141 20.5209 23.4157 19.9187 23.009 18.7843L22.6758 17.8552L22.6225 21.6558C22.5679 25.5475 22.5542 25.7119 22.1653 27.1523C21.3857 30.0397 18.9484 32.8588 16.0848 34.1852C15.3414 34.5295 14.1747 34.8903 13.3273 35.0378C12.6072 35.1633 10.2803 35.215 9.4715 35.1237L9.48238 35.1313ZM13.7899 21.1928C15.1537 20.8802 16.447 20.1192 17.2143 19.1766C17.425 18.9179 17.7773 18.3457 17.997 17.9044L18.3966 17.1031V13.3852L18.0312 12.6328C17.1882 10.8969 15.875 9.85079 13.9351 9.37002C13.2554 9.20146 12.9467 9.17847 11.361 9.17761C9.78486 9.17676 9.47311 9.19935 8.87278 9.35833C6.49559 9.98779 4.905 11.6358 4.41374 13.9798C3.77152 17.0411 5.5507 20.0854 8.53208 21.025C8.97123 21.1636 9.57542 21.3136 9.87365 21.3586C10.6931 21.482 12.9429 21.3867 13.7883 21.1929L13.7899 21.1928ZM36.2492 21.1545C38.3967 20.6208 39.9496 19.2105 40.6416 17.1668C40.8372 16.5892 40.8646 16.3671 40.8686 15.3273C40.8723 14.4097 40.8371 14.0218 40.7118 13.5962C40.0626 11.39 38.5305 9.93055 36.2846 9.37852C34.7645 9.00502 32.1325 9.06079 30.7378 9.49624C28.8114 10.0977 27.3771 11.5941 26.8318 13.5714C26.6929 14.0753 26.6504 14.4758 26.6498 15.2845C26.6489 16.5187 26.844 17.2988 27.4 18.284C27.8145 19.0182 28.8391 20.0427 29.588 20.4722C30.2671 20.8613 31.4296 21.253 32.2191 21.359C33.1881 21.4891 35.3414 21.3796 36.2486 21.154L36.2492 21.1545ZM76.979 21.162C79.1786 20.6119 80.745 19.1372 81.4274 16.9747C81.5923 16.4517 81.6267 16.1573 81.6249 15.2854C81.6223 14.055 81.4906 13.4706 80.9874 12.4559C80.2211 10.911 78.8486 9.8468 76.9965 9.36128C76.3986 9.2047 76.0723 9.18133 74.4658 9.18009C72.8472 9.17889 72.5374 9.20093 71.9352 9.35986C70.7721 9.66685 69.89 10.1508 69.1497 10.8877C68.3912 11.6429 68.0253 12.2207 67.6604 13.2364C67.4111 13.9312 67.3947 14.051 67.3924 15.2013C67.3895 16.5904 67.4809 16.9999 68.0324 18.0669C68.7647 19.4845 70.0236 20.5296 71.5987 21.0266C72.7173 21.3794 73.2916 21.4475 74.8088 21.4074C75.857 21.3797 76.3164 21.3277 76.9785 21.1622L76.979 21.162Z" fill="white" fill-opacity="0.3"/>
</svg>
