<svg width="25" height="25" viewBox="0 0 25 25" fill="none" xmlns="http://www.w3.org/2000/svg">
<path fill-rule="evenodd" clip-rule="evenodd" d="M2.8645 7.96875V5.36458C2.8645 5.01875 3.002 4.68854 3.24575 4.44375C3.49054 4.2 3.82075 4.0625 4.16659 4.0625H6.77075C7.202 4.0625 7.552 3.7125 7.552 3.28125C7.552 2.85 7.202 2.5 6.77075 2.5H4.16659C3.40721 2.5 2.67804 2.80208 2.14054 3.33854C1.60409 3.87604 1.302 4.60521 1.302 5.36458V7.96875C1.302 8.4 1.652 8.75 2.08325 8.75C2.5145 8.75 2.8645 8.4 2.8645 7.96875Z" fill="url(#paint0_radial_1_974)"/>
<path fill-rule="evenodd" clip-rule="evenodd" d="M22.1353 19.4272V22.0314C22.1353 22.3772 21.9978 22.7075 21.754 22.9522C21.5092 23.196 21.179 23.3335 20.8332 23.3335H18.229C17.7978 23.3335 17.4478 23.6835 17.4478 24.1147C17.4478 24.546 17.7978 24.896 18.229 24.896H20.8332C21.5925 24.896 22.3217 24.5939 22.8592 24.0575C23.3957 23.52 23.6978 22.7908 23.6978 22.0314V19.4272C23.6978 18.996 23.3478 18.646 22.9165 18.646C22.4853 18.646 22.1353 18.996 22.1353 19.4272Z" fill="url(#paint1_radial_1_974)"/>
<path fill-rule="evenodd" clip-rule="evenodd" d="M16.6665 2.5C12.7863 2.5 9.63525 5.65104 9.63525 9.53125C9.63525 13.4115 12.7863 16.5625 16.6665 16.5625C20.5467 16.5625 23.6978 13.4115 23.6978 9.53125C23.6978 5.65104 20.5467 2.5 16.6665 2.5ZM16.6665 4.0625C19.6853 4.0625 22.1353 6.5125 22.1353 9.53125C22.1353 12.55 19.6853 15 16.6665 15C13.6478 15 11.1978 12.55 11.1978 9.53125C11.1978 6.5125 13.6478 4.0625 16.6665 4.0625Z" fill="url(#paint2_radial_1_974)"/>
<path fill-rule="evenodd" clip-rule="evenodd" d="M11.4769 13.2281C11.2071 13.5271 11.2092 13.9813 11.4811 14.2781C12.7676 15.6823 14.6144 16.5625 16.6665 16.5625C18.7207 16.5625 20.5696 15.6802 21.8561 14.274C22.1373 13.9667 22.1269 13.4917 21.8332 13.1958C21.7842 13.1469 21.7353 13.0969 21.6863 13.0469C20.4092 11.7448 18.6321 10.9375 16.6665 10.9375C14.7009 10.9375 12.9238 11.7448 11.6467 13.0469C11.5905 13.1052 11.5332 13.1656 11.4769 13.2281Z" fill="url(#paint3_radial_1_974)"/>
<path fill-rule="evenodd" clip-rule="evenodd" d="M3.14785 21.5562C2.87389 21.8541 2.87389 22.3124 3.14785 22.6114C4.43327 24.0145 6.28118 24.8958 8.33327 24.8958C10.3874 24.8958 12.2364 24.0135 13.5229 22.6072C13.8041 22.2999 13.7937 21.8249 13.4999 21.5291C13.451 21.4801 13.402 21.4301 13.3531 21.3801C12.076 20.078 10.2989 19.2708 8.33327 19.2708C6.36764 19.2708 4.59056 20.078 3.31348 21.3801C3.25723 21.4374 3.20202 21.4958 3.14785 21.5562Z" fill="url(#paint4_radial_1_974)"/>
<path d="M16.6667 11.0938C18.1049 11.0938 19.2708 9.92791 19.2708 8.48967C19.2708 7.05142 18.1049 5.8855 16.6667 5.8855C15.2284 5.8855 14.0625 7.05142 14.0625 8.48967C14.0625 9.92791 15.2284 11.0938 16.6667 11.0938Z" fill="url(#paint5_radial_1_974)"/>
<path d="M8.33317 19.4271C9.77141 19.4271 10.9373 18.2612 10.9373 16.8229C10.9373 15.3847 9.77141 14.2188 8.33317 14.2188C6.89493 14.2188 5.729 15.3847 5.729 16.8229C5.729 18.2612 6.89493 19.4271 8.33317 19.4271Z" fill="url(#paint6_radial_1_974)"/>
<path fill-rule="evenodd" clip-rule="evenodd" d="M15.3551 17.4981C15.3614 17.62 15.3645 17.7418 15.3645 17.8647C15.3645 21.745 12.2135 24.896 8.33325 24.896C4.45304 24.896 1.302 21.745 1.302 17.8647C1.302 13.9845 4.45304 10.8335 8.33325 10.8335C8.45617 10.8335 8.57804 10.8366 8.69992 10.8429C8.79159 11.4022 8.94054 11.9418 9.14054 12.4554C8.877 12.4158 8.60721 12.396 8.33325 12.396C5.3145 12.396 2.8645 14.846 2.8645 17.8647C2.8645 20.8835 5.3145 23.3335 8.33325 23.3335C11.352 23.3335 13.802 20.8835 13.802 17.8647C13.802 17.5908 13.7822 17.321 13.7426 17.0575C14.2572 17.2575 14.7968 17.4064 15.3551 17.4981Z" fill="url(#paint7_radial_1_974)"/>
<defs>
<radialGradient id="paint0_radial_1_974" cx="0" cy="0" r="1" gradientUnits="userSpaceOnUse" gradientTransform="translate(1.4816 4.84375) rotate(21.973) scale(6.68146 49.2596)">
<stop stop-color="#0F9D41"/>
<stop offset="0.498228" stop-color="#17D75B"/>
<stop offset="1" stop-color="#0F9D41"/>
</radialGradient>
<radialGradient id="paint1_radial_1_974" cx="0" cy="0" r="1" gradientUnits="userSpaceOnUse" gradientTransform="translate(17.6274 20.9897) rotate(21.973) scale(6.68146 49.2596)">
<stop stop-color="#0F9D41"/>
<stop offset="0.498228" stop-color="#17D75B"/>
<stop offset="1" stop-color="#0F9D41"/>
</radialGradient>
<radialGradient id="paint2_radial_1_974" cx="0" cy="0" r="1" gradientUnits="userSpaceOnUse" gradientTransform="translate(10.0393 7.77343) rotate(21.973) scale(15.0333 110.834)">
<stop stop-color="#0F9D41"/>
<stop offset="0.498228" stop-color="#17D75B"/>
<stop offset="1" stop-color="#0F9D41"/>
</radialGradient>
<radialGradient id="paint3_radial_1_974" cx="0" cy="0" r="1" gradientUnits="userSpaceOnUse" gradientTransform="translate(11.5858 13.0469) rotate(11.8842) scale(10.9258 46.7816)">
<stop stop-color="#0F9D41"/>
<stop offset="0.498228" stop-color="#17D75B"/>
<stop offset="1" stop-color="#0F9D41"/>
</radialGradient>
<radialGradient id="paint4_radial_1_974" cx="0" cy="0" r="1" gradientUnits="userSpaceOnUse" gradientTransform="translate(3.25229 21.3801) rotate(11.884) scale(10.926 46.7816)">
<stop stop-color="#0F9D41"/>
<stop offset="0.498228" stop-color="#17D75B"/>
<stop offset="1" stop-color="#0F9D41"/>
</radialGradient>
<radialGradient id="paint5_radial_1_974" cx="0" cy="0" r="1" gradientUnits="userSpaceOnUse" gradientTransform="translate(14.2122 7.83862) rotate(21.973) scale(5.56788 41.0497)">
<stop stop-color="#0F9D41"/>
<stop offset="0.498228" stop-color="#17D75B"/>
<stop offset="1" stop-color="#0F9D41"/>
</radialGradient>
<radialGradient id="paint6_radial_1_974" cx="0" cy="0" r="1" gradientUnits="userSpaceOnUse" gradientTransform="translate(5.87867 16.1719) rotate(21.973) scale(5.56788 41.0497)">
<stop stop-color="#0F9D41"/>
<stop offset="0.498228" stop-color="#17D75B"/>
<stop offset="1" stop-color="#0F9D41"/>
</radialGradient>
<radialGradient id="paint7_radial_1_974" cx="0" cy="0" r="1" gradientUnits="userSpaceOnUse" gradientTransform="translate(1.7061 16.1069) rotate(21.973) scale(15.0333 110.834)">
<stop stop-color="#0F9D41"/>
<stop offset="0.498228" stop-color="#17D75B"/>
<stop offset="1" stop-color="#0F9D41"/>
</radialGradient>
</defs>
</svg>
