<svg width="25" height="25" viewBox="0 0 25 25" fill="none" xmlns="http://www.w3.org/2000/svg">
<path d="M22.7323 6.73013C22.1312 4.89054 20.5917 3.57492 18.75 3.22492V3.12492C18.75 2.54992 18.2833 2.08325 17.7083 2.08325C17.1333 2.08325 16.6667 2.54992 16.6667 3.12492H8.33333C8.33333 2.54992 7.86667 2.08325 7.29167 2.08325C6.71667 2.08325 6.25 2.54992 6.25 3.12492V3.22492C4.40937 3.57492 2.86875 4.89054 2.26771 6.73013C0.385417 12.4968 0 18.3968 0 19.6614C0 21.4562 1.46042 22.9166 3.25521 22.9166C5.89479 22.9166 8.40417 18.5853 9.3625 16.2947C9.53229 15.8874 9.91042 15.6249 10.3271 15.6249H14.674C15.0896 15.6249 15.4687 15.8874 15.6385 16.2947C16.5958 18.5853 19.1052 22.9166 21.7448 22.9166C23.5396 22.9166 25 21.4562 25 19.6614C25 18.3968 24.6146 12.4968 22.7323 6.73013ZM7.8125 11.4583C6.95 11.4583 6.25 10.7583 6.25 9.89575C6.25 9.03325 6.95 8.33325 7.8125 8.33325C8.675 8.33325 9.375 9.03325 9.375 9.89575C9.375 10.7583 8.675 11.4583 7.8125 11.4583ZM17.1875 11.4583C16.325 11.4583 15.625 10.7583 15.625 9.89575C15.625 9.03325 16.325 8.33325 17.1875 8.33325C18.05 8.33325 18.75 9.03325 18.75 9.89575C18.75 10.7583 18.05 11.4583 17.1875 11.4583Z" fill="url(#paint0_radial_1_988)"/>
<defs>
<radialGradient id="paint0_radial_1_988" cx="0" cy="0" r="1" gradientUnits="userSpaceOnUse" gradientTransform="translate(0.718392 9.89575) rotate(18.5843) scale(26.1479 167.828)">
<stop stop-color="#0F9D41"/>
<stop offset="0.498228" stop-color="#17D75B"/>
<stop offset="1" stop-color="#0F9D41"/>
</radialGradient>
</defs>
</svg>
