<svg width="25" height="25" viewBox="0 0 25 25" fill="none" xmlns="http://www.w3.org/2000/svg">
<g clip-path="url(#clip0_1_931)">
<path d="M23.4219 11.4321L12.5 17.9863L1.5781 11.4321C1.34121 11.29 1.05754 11.2478 0.789523 11.3148C0.521503 11.3818 0.291077 11.5525 0.148938 11.7894C0.00679805 12.0263 -0.035412 12.31 0.0315932 12.578C0.0985984 12.846 0.26933 13.0765 0.506229 13.2186L11.9646 20.0936C12.1266 20.1909 12.312 20.2424 12.501 20.2424C12.69 20.2424 12.8755 20.1909 13.0375 20.0936L24.4958 13.2186C24.7327 13.0765 24.9034 12.846 24.9705 12.578C25.0375 12.31 24.9952 12.0263 24.8531 11.7894C24.711 11.5525 24.4805 11.3818 24.2125 11.3148C23.9445 11.2478 23.6608 11.29 23.4239 11.4321H23.4219Z" fill="url(#paint0_radial_1_931)"/>
<path d="M23.4219 16.1908L12.5 22.7439L1.5781 16.1908C1.4608 16.1204 1.33079 16.0738 1.19548 16.0537C1.06018 16.0336 0.922231 16.0403 0.78952 16.0735C0.65681 16.1066 0.531934 16.1656 0.422022 16.2471C0.31211 16.3285 0.219315 16.4308 0.148934 16.5481C0.0785541 16.6654 0.031967 16.7954 0.011833 16.9307C-0.00830095 17.066 -0.00158747 17.204 0.0315901 17.3367C0.0985953 17.6047 0.269327 17.8351 0.506226 17.9773L11.9646 24.8523C12.1266 24.9496 12.312 25.001 12.501 25.001C12.69 25.001 12.8755 24.9496 13.0375 24.8523L24.4958 17.9773C24.7327 17.8351 24.9034 17.6047 24.9704 17.3367C25.0374 17.0687 24.9952 16.785 24.8531 16.5481C24.711 16.3112 24.4805 16.1405 24.2125 16.0735C23.9445 16.0065 23.6608 16.0487 23.4239 16.1908H23.4219Z" fill="url(#paint1_radial_1_931)"/>
<path d="M0.505123 8.70531L10.9051 14.9459C11.3866 15.2356 11.938 15.3887 12.4999 15.3887C13.0619 15.3887 13.6132 15.2356 14.0947 14.9459L24.4947 8.70531C24.6487 8.6127 24.7762 8.48182 24.8646 8.32539C24.9531 8.16897 24.9996 7.99231 24.9996 7.8126C24.9996 7.63289 24.9531 7.45623 24.8646 7.29981C24.7762 7.14338 24.6487 7.0125 24.4947 6.91989L14.0947 0.679265C13.6131 0.389921 13.0618 0.237061 12.4999 0.237061C11.938 0.237061 11.3868 0.389921 10.9051 0.679265L0.505123 6.91989C0.35111 7.0125 0.223676 7.14338 0.135207 7.29981C0.0467382 7.45623 0.000244141 7.63289 0.000244141 7.8126C0.000244141 7.99231 0.0467382 8.16897 0.135207 8.32539C0.223676 8.48182 0.35111 8.6127 0.505123 8.70531Z" fill="url(#paint2_radial_1_931)"/>
</g>
<defs>
<radialGradient id="paint0_radial_1_931" cx="0" cy="0" r="1" gradientUnits="userSpaceOnUse" gradientTransform="translate(0.718911 14.6432) rotate(8.22676) scale(25.0432 75.3552)">
<stop stop-color="#0F9D41"/>
<stop offset="0.498228" stop-color="#17D75B"/>
<stop offset="1" stop-color="#0F9D41"/>
</radialGradient>
<radialGradient id="paint1_radial_1_931" cx="0" cy="0" r="1" gradientUnits="userSpaceOnUse" gradientTransform="translate(0.71891 19.4019) rotate(8.22676) scale(25.0432 75.3552)">
<stop stop-color="#0F9D41"/>
<stop offset="0.498228" stop-color="#17D75B"/>
<stop offset="1" stop-color="#0F9D41"/>
</radialGradient>
<radialGradient id="paint2_radial_1_931" cx="0" cy="0" r="1" gradientUnits="userSpaceOnUse" gradientTransform="translate(0.718617 5.91891) rotate(13.7414) scale(25.5141 125.086)">
<stop stop-color="#0F9D41"/>
<stop offset="0.498228" stop-color="#17D75B"/>
<stop offset="1" stop-color="#0F9D41"/>
</radialGradient>
<clipPath id="clip0_1_931">
<rect width="25" height="25" fill="white"/>
</clipPath>
</defs>
</svg>
