<svg width="40" height="40" viewBox="0 0 40 40" fill="none" xmlns="http://www.w3.org/2000/svg">
<g clip-path="url(#clip0_1_860)">
<path d="M19.9991 24.0038C22.2056 24.0038 24.0046 22.2081 24.0046 20C24.0046 19.1283 23.7194 18.3235 23.2473 17.6661C22.5198 16.6575 21.3372 15.9961 20.0015 15.9961C18.665 15.9961 17.4832 16.6567 16.7541 17.6653C16.2804 18.3227 15.9976 19.1275 15.9968 19.9992C15.9944 22.2073 17.7917 24.0038 19.9991 24.0038Z" fill="white"/>
<path d="M28.7419 15.1019V11.7458V11.2463L28.24 11.2479L24.8855 11.2584L24.8984 15.1148L28.7419 15.1019Z" fill="white"/>
<path d="M20 0C8.97204 0 0 8.97204 0 20C0 31.0271 8.97204 40 20 40C31.0271 40 40 31.0271 40 20C40 8.97204 31.0288 0 20 0ZM31.3744 17.6662V26.979C31.3744 29.4046 29.4022 31.376 26.9782 31.376H13.0218C10.597 31.376 8.62563 29.4046 8.62563 26.979V17.6662V13.0226C8.62563 10.5978 10.597 8.62644 13.0218 8.62644H26.9774C29.4022 8.62644 31.3744 10.5978 31.3744 13.0226V17.6662Z" fill="white"/>
<path d="M26.222 20C26.222 23.4294 23.4313 26.2217 20.0003 26.2217C16.5692 26.2217 13.7794 23.4294 13.7794 20C13.7794 19.175 13.9437 18.3864 14.2369 17.6661H10.8413V26.979C10.8413 28.1825 11.8185 29.1573 13.0213 29.1573H26.9768C28.178 29.1573 29.1568 28.1825 29.1568 26.979V17.6661H25.7595C26.0552 18.3864 26.222 19.175 26.222 20Z" fill="white"/>
</g>
<defs>
<clipPath id="clip0_1_860">
<rect width="40" height="40" fill="white"/>
</clipPath>
</defs>
</svg>
