<svg width="40" height="40" viewBox="0 0 40 40" fill="none" xmlns="http://www.w3.org/2000/svg">
<path d="M20 0C8.955 0 0 8.95375 0 20C0 31.045 8.955 40 20 40C31.045 40 40 31.045 40 20C40 8.95375 31.045 0 20 0ZM14.805 27.8463H10.725V15.5712H14.805V27.8463ZM12.765 13.895H12.7388C11.3687 13.895 10.4838 12.9512 10.4838 11.7737C10.4838 10.57 11.3962 9.65375 12.7913 9.65375C14.1862 9.65375 15.0462 10.57 15.0725 11.7737C15.0725 12.9525 14.1862 13.895 12.765 13.895ZM29.5163 27.8463H25.4363V21.2788C25.4363 19.6288 24.8463 18.5037 23.3687 18.5037C22.2425 18.5037 21.5712 19.2625 21.2762 19.9963C21.1688 20.2587 21.1413 20.625 21.1413 20.9912V27.8463H17.0625C17.0625 27.8463 17.1162 16.7237 17.0625 15.5712H21.1425V17.31C21.6838 16.4737 22.6538 15.2825 24.82 15.2825C27.5038 15.2825 29.5163 17.0375 29.5163 20.8075V27.8463Z" fill="white"/>
</svg>
