<svg width="25" height="25" viewBox="0 0 25 25" fill="none" xmlns="http://www.w3.org/2000/svg">
<path d="M6.25 14.2531L1.87187 9.87501C1.13229 9.13543 0.784375 8.16356 0.670833 7.20106C0.241667 6.77189 0 6.18856 0 5.58126V1.68751C0 0.723973 0.8125 -0.0499853 1.79062 0.014598C2.20729 0.0416813 2.59479 0.235431 2.89062 0.530223L4.46042 2.09481H11.226C11.9031 2.09481 12.4969 2.64793 12.5 3.32397C12.5031 3.99897 11.9573 4.54793 11.2812 4.54897H9.80312L12.6073 7.35314C11.7573 7.46772 11.0073 7.90418 10.5156 8.56043C10.0344 8.37189 9.49583 8.29793 8.93229 8.37501C7.38021 8.5896 6.24896 9.96147 6.24896 11.5281L6.25 14.2531ZM22.9229 0.00418134L21.4729 1.46764e-05C20.9177 -0.00206866 20.3854 0.217723 19.9927 0.610431L18.9094 1.69376C17.9469 1.80626 16.975 2.15522 16.2354 2.89481C16.2354 2.89481 13.8833 5.37501 13.7365 5.53647L18.951 10.7511C19.6656 11.4677 19.6646 12.724 19.6646 12.724L21.5615 10.8271V12.3052C21.5615 12.9781 22.1073 13.524 22.7802 13.524C23.4531 13.524 23.999 12.9781 23.999 12.3052L23.9594 5.48335L24.2375 5.20522C24.726 4.71668 25 4.05418 25 3.36356V2.08751C25 0.939598 24.0708 0.00834801 22.9229 0.00418134ZM16.6667 11.4688C16.0917 11.4688 15.625 11.9354 15.625 12.5104V15.8958C15.625 16.3271 15.275 16.6771 14.8437 16.6771C14.4125 16.6771 14.0625 16.3271 14.0625 15.8958V10.4271C14.0625 9.8521 13.5958 9.38543 13.0208 9.38543C12.4458 9.38543 11.9792 9.8521 11.9792 10.4271V15.8958C11.9792 16.3271 11.6292 16.6771 11.1979 16.6771C10.7667 16.6771 10.4167 16.3271 10.4167 15.8958V11.4688C10.4167 10.8938 9.95 10.4271 9.375 10.4271C8.8 10.4271 8.33333 10.8938 8.33333 11.4688V19.1208L7.28854 18.0761C6.8125 17.6 6.04167 17.6 5.56562 18.0761C5.08958 18.5521 5.08958 19.3229 5.56562 19.799L9.69792 23.8271C10.476 24.5854 11.5198 25.0104 12.6062 25.0104H15.625C16.2 25.0104 16.6667 24.5438 16.6667 23.9688V23.5729C17.3073 22.8406 17.7083 21.8927 17.7083 20.8438V12.5115C17.7083 11.9365 17.2417 11.4688 16.6667 11.4688Z" fill="url(#paint0_radial_1_925)"/>
<defs>
<radialGradient id="paint0_radial_1_925" cx="0" cy="0" r="1" gradientUnits="userSpaceOnUse" gradientTransform="translate(0.718392 9.37891) rotate(21.9813) scale(26.7274 197.109)">
<stop stop-color="#0F9D41"/>
<stop offset="0.498228" stop-color="#17D75B"/>
<stop offset="1" stop-color="#0F9D41"/>
</radialGradient>
</defs>
</svg>
