<svg width="22" height="22" viewBox="0 0 22 22" fill="none" xmlns="http://www.w3.org/2000/svg">
<path d="M0.153447 21.8461C0.255693 21.9485 0.389786 21.9996 0.523774 21.9996C0.657763 21.9996 0.791855 21.9485 0.894101 21.8461L10.9998 11.7404L21.1055 21.8461C21.2077 21.9485 21.3418 21.9996 21.4758 21.9996C21.6098 21.9996 21.7439 21.9485 21.8461 21.8461C22.0507 21.6415 22.0507 21.3101 21.8461 21.1055L11.7404 10.9998L21.8461 0.894101C22.0507 0.689505 22.0507 0.358044 21.8461 0.153447C21.6415 -0.0511491 21.3101 -0.0511491 21.1055 0.153447L10.9998 10.2591L0.894101 0.153447C0.689505 -0.0511491 0.358044 -0.0511491 0.153447 0.153447C-0.0511491 0.358044 -0.0511491 0.689505 0.153447 0.894101L10.2591 10.9998L0.153447 21.1055C-0.0511491 21.3101 -0.0511491 21.6415 0.153447 21.8461Z" fill="white"/>
</svg>
