<svg width="18" height="19" viewBox="0 0 18 19" fill="none" xmlns="http://www.w3.org/2000/svg">
<g clip-path="url(#clip0_1_806)">
<path d="M11.8707 10.2064L13.6208 10.5538C13.6389 11.4122 14.3495 12.0934 15.208 12.0753C16.0664 12.0572 16.7476 11.3465 16.7295 10.4881C16.7113 9.6297 16.0007 8.94849 15.1423 8.96662C14.5394 8.97934 13.9983 9.33956 13.7539 9.89081L11.9584 9.53444C11.9565 8.8774 11.7008 8.24649 11.2447 7.77356L13.5686 4.49058C14.5489 4.95667 15.7213 4.53986 16.1874 3.55963C16.6535 2.57941 16.2367 1.40697 15.2564 0.940879C14.2762 0.474793 13.1038 0.8916 12.6377 1.87183C12.2819 2.62011 12.4336 3.51112 13.017 4.09947L10.7155 7.35071C9.65703 6.71501 8.29528 6.92866 7.4823 7.85787L4.46081 5.51134C4.85741 4.74793 4.56009 3.80751 3.79667 3.41091C3.03326 3.0143 2.09285 3.31163 1.69624 4.07504C1.29964 4.83846 1.59696 5.77887 2.36038 6.17547C2.89679 6.45416 3.54601 6.39736 4.02583 6.02975L7.1056 8.4215C6.59387 9.46699 6.85468 10.7263 7.73956 11.4825L5.8679 14.1288C4.87702 13.5274 3.58624 13.8432 2.98491 14.8342C2.38358 15.825 2.69938 17.1158 3.6903 17.7171C4.68117 18.3185 5.97195 18.0027 6.57328 17.0118C7.0406 16.2417 6.96439 15.2593 6.38386 14.5705L8.30602 11.8521C8.96365 12.1647 9.72347 12.1818 10.3944 11.8989L12.6751 15.268C12.0044 15.9772 12.0355 17.0959 12.7447 17.7667C13.4539 18.4375 14.5726 18.4063 15.2433 17.6971C15.9141 16.9879 15.883 15.8692 15.1738 15.1985C14.6508 14.7039 13.8802 14.5758 13.2254 14.8747L10.9776 11.5541C11.4129 11.213 11.7262 10.7403 11.8707 10.2064Z" fill="url(#paint0_radial_1_806)"/>
</g>
<defs>
<radialGradient id="paint0_radial_1_806" cx="0" cy="0" r="1" gradientUnits="userSpaceOnUse" gradientTransform="translate(1.95756 7.31252) rotate(24.903) scale(16.6239 134.902)">
<stop stop-color="#0F9D41"/>
<stop offset="0.498228" stop-color="#17D75B"/>
<stop offset="1" stop-color="#0F9D41"/>
</radialGradient>
<clipPath id="clip0_1_806">
<rect width="17.5" height="17.5" fill="white" transform="translate(0.375 0.75)"/>
</clipPath>
</defs>
</svg>
