<svg width="25" height="25" viewBox="0 0 25 25" fill="none" xmlns="http://www.w3.org/2000/svg">
<path d="M2.17461 13.1602C3.11602 13.9071 4.89961 14.3715 6.83047 14.3723C7.63789 13.2922 9.65117 12.527 12.1086 12.4528V11.0637C12.0668 11.1 12.0262 11.1372 11.9813 11.1727C10.8949 12.0391 8.9707 12.5575 6.83555 12.5575C4.70039 12.5575 2.77617 12.0391 1.68789 11.1711C1.64336 11.136 1.60352 11.0997 1.5625 11.0637V12.1629C1.5625 12.1629 1.5625 12.1641 1.5625 12.1649C1.5625 12.5856 1.8957 12.9383 2.17461 13.1602Z" fill="url(#paint0_radial_1_1001)"/>
<path d="M13.0161 11.8429C12.9715 11.8073 12.9313 11.7706 12.8899 11.7339V12.4522C13.4075 12.4679 13.9063 12.512 14.3774 12.5855C13.8477 12.38 13.3821 12.1331 13.0161 11.8429Z" fill="url(#paint1_radial_1_1001)"/>
<path d="M23.4351 15.4375V14.3289C23.3933 14.3652 23.3534 14.4019 23.3085 14.4371C22.2894 15.25 20.53 15.7503 18.5542 15.8101V17.6273C20.3335 17.5691 21.946 17.1234 22.8241 16.4265C23.1015 16.2058 23.4319 15.8554 23.4351 15.4375Z" fill="url(#paint2_radial_1_1001)"/>
<path d="M23.4351 18.03V16.9304C23.394 16.9667 23.3542 17.0031 23.3101 17.0386C22.287 17.8503 20.5276 18.3492 18.5542 18.4089V20.2261C20.3347 20.1675 21.9472 19.7207 22.8233 19.0218C23.1034 18.8015 23.4347 18.4523 23.4354 18.032C23.4354 18.0312 23.4351 18.0308 23.4351 18.03Z" fill="url(#paint3_radial_1_1001)"/>
<path d="M18.163 13.2247C17.4985 13.2247 16.8595 13.1692 16.2544 13.0739C17.4634 13.5399 18.2876 14.2306 18.497 15.031C20.3001 14.9806 21.9376 14.5313 22.8231 13.8251C23.1024 13.6056 23.4317 13.2579 23.4349 12.8392V11.7349C23.3938 11.7712 23.354 11.8075 23.3099 11.8427C22.2192 12.7083 20.2954 13.2247 18.163 13.2247Z" fill="url(#paint4_radial_1_1001)"/>
<path d="M7.22705 20.6286C7.22705 21.0504 7.55908 21.3997 7.83721 21.6188C8.77979 22.3704 10.5653 22.8364 12.5001 22.8364C14.4349 22.8364 16.22 22.3704 17.1606 21.6204C17.4407 21.4 17.772 21.0512 17.7728 20.6305C17.7728 20.6297 17.7728 20.6293 17.7728 20.6286C17.7728 20.6274 17.7731 20.6266 17.7731 20.6258V19.5286C17.7317 19.5649 17.6915 19.602 17.647 19.6375C16.5563 20.5032 14.6321 21.0196 12.4997 21.0196C10.3673 21.0196 8.44307 20.5032 7.35283 19.6375C7.3083 19.6024 7.26885 19.5657 7.22744 19.5293V20.6282L7.22705 20.6286Z" fill="url(#paint5_radial_1_1001)"/>
<path d="M6.4457 19.5603V18.0388C6.4457 18.036 6.44531 18.0333 6.44531 18.0302C6.44531 18.029 6.4457 18.0282 6.4457 18.0274V17.7403C4.46914 17.681 2.70898 17.1802 1.68789 16.3657C1.64336 16.3306 1.60352 16.2942 1.5625 16.2583V17.3595C1.5625 17.3595 1.5625 17.3606 1.5625 17.3614C1.5625 18.361 3.55 19.4673 6.4457 19.5603Z" fill="url(#paint6_radial_1_1001)"/>
<path d="M7.22656 15.4297C7.22656 15.4297 7.22695 15.4309 7.22695 15.4316V15.4383C7.23516 16.4809 9.39805 17.6398 12.5 17.6398C15.602 17.6398 17.7605 16.4832 17.7727 15.4414V15.4348C17.7727 15.4348 17.7723 15.4328 17.7723 15.432C17.7723 15.4301 17.7734 15.4289 17.7734 15.427C17.7656 14.384 15.6027 13.2246 12.5004 13.2246C9.39805 13.2246 7.23008 14.3859 7.22656 15.4297Z" fill="url(#paint7_radial_1_1001)"/>
<path d="M18.1636 9.84541C21.2522 9.84541 23.4085 8.69619 23.4351 7.65713V7.63643C23.4351 7.63408 23.4362 7.63174 23.4366 7.62939C23.4253 6.58721 21.2636 5.43018 18.164 5.43018C15.0644 5.43018 12.8921 6.59268 12.8901 7.63643V7.63955C12.8921 8.6833 15.0573 9.8458 18.164 9.8458L18.1636 9.84541Z" fill="url(#paint8_radial_1_1001)"/>
<path d="M2.17295 10.5582C3.11553 11.3097 4.90107 11.7757 6.83545 11.7757C8.76982 11.7757 10.5558 11.3097 11.496 10.5597C11.7765 10.339 12.1081 9.98979 12.1081 9.56792V9.56714V8.46792C12.0667 8.50425 12.0269 8.54097 11.9823 8.57651C10.8917 9.44214 8.96748 9.95854 6.83506 9.95854C4.70264 9.95854 2.77842 9.44214 1.68818 8.57651C1.64326 8.54097 1.60342 8.50386 1.56201 8.46753V9.56675V9.56753C1.56201 9.98901 1.89404 10.3386 2.17217 10.5578L2.17295 10.5582Z" fill="url(#paint9_radial_1_1001)"/>
<path d="M6.83633 6.57939C9.93086 6.57939 12.0902 5.42588 12.1086 4.38525V4.37002C12.1086 4.37002 12.1094 4.36729 12.1094 4.36572C12.1008 3.32314 9.93789 2.16455 6.83633 2.16455C3.73477 2.16455 1.5625 3.32822 1.5625 4.37197C1.5625 5.41572 3.72812 6.57939 6.83633 6.57939Z" fill="url(#paint10_radial_1_1001)"/>
<path d="M2.17451 7.96533C3.1167 8.71299 4.90264 9.17783 6.83545 9.17783C8.76826 9.17783 10.5546 8.71338 11.4968 7.96533C11.7757 7.74346 12.1081 7.39072 12.1081 6.97002V6.96924V5.85908C11.0776 6.76221 9.12607 7.36103 6.83584 7.36103C4.54561 7.36103 2.59209 6.76182 1.56201 5.85791V6.96963V6.97041C1.56201 7.39111 1.89482 7.74385 2.17412 7.96572L2.17451 7.96533Z" fill="url(#paint11_radial_1_1001)"/>
<path d="M13.5016 11.2313C14.4438 11.979 16.2301 12.4438 18.1629 12.4438C20.0958 12.4438 21.8817 11.9794 22.8243 11.2313C23.1012 11.011 23.4309 10.6614 23.4352 10.2438V9.12549C22.4047 10.0282 20.4536 10.6267 18.1637 10.6267C15.8739 10.6267 13.92 10.0274 12.8899 9.12354V10.2349V10.2356C12.8899 10.6563 13.2227 11.0091 13.5016 11.231V11.2313Z" fill="url(#paint12_radial_1_1001)"/>
<path d="M2.17305 15.7534C3.05117 16.4538 4.66445 16.901 6.4457 16.9592V15.4397C6.4457 15.437 6.44492 15.4346 6.44492 15.4319C6.44492 15.3338 6.45586 15.2377 6.47344 15.1424C4.48789 15.087 2.71641 14.5874 1.68867 13.7713C1.64375 13.7358 1.60391 13.6987 1.5625 13.6624V14.7608C1.5625 14.7608 1.5625 14.762 1.5625 14.7627C1.5625 15.1846 1.89453 15.5342 2.17266 15.7534H2.17305Z" fill="url(#paint13_radial_1_1001)"/>
<path d="M17.7728 16.9188C16.7427 17.8224 14.7907 18.4208 12.5001 18.4208C10.2095 18.4208 8.25713 17.822 7.22705 16.9185V18.0364C7.23018 18.4544 7.56064 18.8052 7.83799 19.0259C8.78057 19.7735 10.5665 20.2384 12.4993 20.2384C14.4321 20.2384 16.2181 19.7739 17.1606 19.0259C17.4396 18.8044 17.772 18.4513 17.772 18.0306C17.772 18.0294 17.7724 18.0286 17.7724 18.0278V16.9196L17.7728 16.9188Z" fill="url(#paint14_radial_1_1001)"/>
<defs>
<radialGradient id="paint0_radial_1_1001" cx="0" cy="0" r="1" gradientUnits="userSpaceOnUse" gradientTransform="translate(1.86555 12.3044) rotate(7.21425) scale(10.5386 27.8968)">
<stop stop-color="#0F9D41"/>
<stop offset="0.498228" stop-color="#17D75B"/>
<stop offset="1" stop-color="#0F9D41"/>
</radialGradient>
<radialGradient id="paint1_radial_1_1001" cx="0" cy="0" r="1" gradientUnits="userSpaceOnUse" gradientTransform="translate(12.9326 12.0532) rotate(13.0063) scale(1.5135 7.05167)">
<stop stop-color="#0F9D41"/>
<stop offset="0.498228" stop-color="#17D75B"/>
<stop offset="1" stop-color="#0F9D41"/>
</radialGradient>
<radialGradient id="paint2_radial_1_1001" cx="0" cy="0" r="1" gradientUnits="userSpaceOnUse" gradientTransform="translate(18.6945 15.5658) rotate(15.2519) scale(5.01543 27.0457)">
<stop stop-color="#0F9D41"/>
<stop offset="0.498228" stop-color="#17D75B"/>
<stop offset="1" stop-color="#0F9D41"/>
</radialGradient>
<radialGradient id="paint3_radial_1_1001" cx="0" cy="0" r="1" gradientUnits="userSpaceOnUse" gradientTransform="translate(18.6945 18.1663) rotate(15.2387) scale(5.01552 27.025)">
<stop stop-color="#0F9D41"/>
<stop offset="0.498228" stop-color="#17D75B"/>
<stop offset="1" stop-color="#0F9D41"/>
</radialGradient>
<radialGradient id="paint4_radial_1_1001" cx="0" cy="0" r="1" gradientUnits="userSpaceOnUse" gradientTransform="translate(16.4607 12.9709) rotate(10.4929) scale(7.23963 27.5447)">
<stop stop-color="#0F9D41"/>
<stop offset="0.498228" stop-color="#17D75B"/>
<stop offset="1" stop-color="#0F9D41"/>
</radialGradient>
<radialGradient id="paint5_radial_1_1001" cx="0" cy="0" r="1" gradientUnits="userSpaceOnUse" gradientTransform="translate(7.5301 20.769) rotate(7.21256) scale(10.5386 27.8903)">
<stop stop-color="#0F9D41"/>
<stop offset="0.498228" stop-color="#17D75B"/>
<stop offset="1" stop-color="#0F9D41"/>
</radialGradient>
<radialGradient id="paint6_radial_1_1001" cx="0" cy="0" r="1" gradientUnits="userSpaceOnUse" gradientTransform="translate(1.70282 17.4965) rotate(15.2604) scale(5.01804 27.0734)">
<stop stop-color="#0F9D41"/>
<stop offset="0.498228" stop-color="#17D75B"/>
<stop offset="1" stop-color="#0F9D41"/>
</radialGradient>
<radialGradient id="paint7_radial_1_1001" cx="0" cy="0" r="1" gradientUnits="userSpaceOnUse" gradientTransform="translate(7.52963 14.8803) rotate(9.58723) scale(10.6041 37.0005)">
<stop stop-color="#0F9D41"/>
<stop offset="0.498228" stop-color="#17D75B"/>
<stop offset="1" stop-color="#0F9D41"/>
</radialGradient>
<radialGradient id="paint8_radial_1_1001" cx="0" cy="0" r="1" gradientUnits="userSpaceOnUse" gradientTransform="translate(13.1932 7.08603) rotate(9.58841) scale(10.6037 37.0036)">
<stop stop-color="#0F9D41"/>
<stop offset="0.498228" stop-color="#17D75B"/>
<stop offset="1" stop-color="#0F9D41"/>
</radialGradient>
<radialGradient id="paint9_radial_1_1001" cx="0" cy="0" r="1" gradientUnits="userSpaceOnUse" gradientTransform="translate(1.86506 9.7081) rotate(7.21341) scale(10.5386 27.8935)">
<stop stop-color="#0F9D41"/>
<stop offset="0.498228" stop-color="#17D75B"/>
<stop offset="1" stop-color="#0F9D41"/>
</radialGradient>
<radialGradient id="paint10_radial_1_1001" cx="0" cy="0" r="1" gradientUnits="userSpaceOnUse" gradientTransform="translate(1.86557 3.82026) rotate(9.58723) scale(10.6041 37.0005)">
<stop stop-color="#0F9D41"/>
<stop offset="0.498228" stop-color="#17D75B"/>
<stop offset="1" stop-color="#0F9D41"/>
</radialGradient>
<radialGradient id="paint11_radial_1_1001" cx="0" cy="0" r="1" gradientUnits="userSpaceOnUse" gradientTransform="translate(1.86506 7.10288) rotate(7.23869) scale(10.5392 27.9908)">
<stop stop-color="#0F9D41"/>
<stop offset="0.498228" stop-color="#17D75B"/>
<stop offset="1" stop-color="#0F9D41"/>
</radialGradient>
<radialGradient id="paint12_radial_1_1001" cx="0" cy="0" r="1" gradientUnits="userSpaceOnUse" gradientTransform="translate(13.1929 10.3687) rotate(7.24006) scale(10.5384 27.994)">
<stop stop-color="#0F9D41"/>
<stop offset="0.498228" stop-color="#17D75B"/>
<stop offset="1" stop-color="#0F9D41"/>
</radialGradient>
<radialGradient id="paint13_radial_1_1001" cx="0" cy="0" r="1" gradientUnits="userSpaceOnUse" gradientTransform="translate(1.70362 14.8987) rotate(15.1559) scale(5.04404 27.0452)">
<stop stop-color="#0F9D41"/>
<stop offset="0.498228" stop-color="#17D75B"/>
<stop offset="1" stop-color="#0F9D41"/>
</radialGradient>
<radialGradient id="paint14_radial_1_1001" cx="0" cy="0" r="1" gradientUnits="userSpaceOnUse" gradientTransform="translate(7.53009 18.1634) rotate(7.23895) scale(10.5388 27.9908)">
<stop stop-color="#0F9D41"/>
<stop offset="0.498228" stop-color="#17D75B"/>
<stop offset="1" stop-color="#0F9D41"/>
</radialGradient>
</defs>
</svg>
