<svg width="25" height="22" viewBox="0 0 25 22" fill="none" xmlns="http://www.w3.org/2000/svg">
<path d="M21.875 4.44324H5.20833C4.31354 4.44324 3.46667 4.04375 2.88021 3.37043C3.45312 2.71106 4.28542 2.29547 5.20833 2.29547H23.9583C25.3208 2.28903 25.3198 0.153074 23.9583 0.147705H5.20833C2.33229 0.147705 0 2.55213 0 5.51712V16.256C0 19.2209 2.33229 21.6254 5.20833 21.6254H21.875C23.601 21.6254 25 20.1831 25 18.4037V7.66489C25 5.88546 23.601 4.44324 21.875 4.44324ZM20.8333 14.1082C19.4708 14.1017 19.4708 11.9669 20.8333 11.9604C22.1958 11.9669 22.1958 14.1017 20.8333 14.1082Z" fill="url(#paint0_radial_1_919)"/>
<defs>
<radialGradient id="paint0_radial_1_919" cx="0" cy="0" r="1" gradientUnits="userSpaceOnUse" gradientTransform="translate(0.718392 8.20182) rotate(19.1179) scale(26.2312 172.469)">
<stop stop-color="#0F9D41"/>
<stop offset="0.498228" stop-color="#17D75B"/>
<stop offset="1" stop-color="#0F9D41"/>
</radialGradient>
</defs>
</svg>
