<svg width="18" height="18" viewBox="0 0 18 18" fill="none" xmlns="http://www.w3.org/2000/svg">
<g clip-path="url(#clip0_1_821)">
<path d="M0.571033 10.1328C0.18378 9.56305 0.106369 8.83767 0.364683 8.19905C0.941989 7.02136 1.90909 6.07981 3.1018 5.53426C3.96534 5.10483 4.90071 4.8385 5.8609 4.74857C5.44252 5.26339 5.02367 5.81268 4.60436 6.39653C3.75098 7.6888 3.02049 9.05815 2.42247 10.4866L2.16506 11.0638C1.52026 11.0105 0.934241 10.6682 0.571033 10.1328ZM1.55172 13.128C0.935644 13.9787 0.493455 14.9425 0.250537 15.9644C0.0990892 16.6284 0.514561 17.2894 1.17856 17.4409C1.35926 17.4821 1.54691 17.4821 1.72762 17.4408C2.74791 17.1974 3.71027 16.7556 4.55978 16.1403C5.39159 15.3089 5.39193 13.9605 4.56048 13.1287C3.72907 12.2969 2.38073 12.2966 1.54892 13.128H1.55172ZM7.17985 15.2411L6.5984 15.4993V15.7077C6.5998 16.2072 6.79981 16.6855 7.15433 17.0373C7.49156 17.3653 7.9433 17.5489 8.41371 17.5493C10.085 17.5252 11.4402 16.0035 12.1514 14.5867C12.5871 13.7099 12.8543 12.7591 12.9392 11.7836C12.4192 12.2091 11.8616 12.6345 11.2664 13.06C9.97464 13.9136 8.6055 14.6439 7.17701 15.2412L7.17985 15.2411ZM17.2349 2.54895C17.1406 5.63565 14.9183 8.69684 10.4403 11.9091C9.22171 12.699 7.93615 13.3805 6.5984 13.9456V13.5464C6.59179 12.1785 5.4845 11.0712 4.11656 11.0646H3.71735C4.2838 9.72679 4.96643 8.44123 5.75744 7.22267C8.96183 2.7553 12.018 0.53013 15.0998 0.429443C16.6357 0.429443 17.2349 1.05487 17.2349 2.54895ZM12.9803 6.45538C12.9803 5.47632 12.1866 4.68261 11.2075 4.68261C10.2284 4.68261 9.43477 5.47629 9.43477 6.45538C9.43477 7.43443 10.2284 8.22814 11.2075 8.22814C12.1866 8.22814 12.9803 7.43443 12.9803 6.45538Z" fill="url(#paint0_radial_1_821)"/>
</g>
<defs>
<radialGradient id="paint0_radial_1_821" cx="0" cy="0" r="1" gradientUnits="userSpaceOnUse" gradientTransform="translate(0.703215 6.84938) rotate(22.0886) scale(18.2107 134.821)">
<stop stop-color="#0F9D41"/>
<stop offset="0.498228" stop-color="#17D75B"/>
<stop offset="1" stop-color="#0F9D41"/>
</radialGradient>
<clipPath id="clip0_1_821">
<rect width="17.0984" height="17.0984" fill="white" transform="translate(0.17627 0.450806)"/>
</clipPath>
</defs>
</svg>
