<svg width="18" height="18" viewBox="0 0 18 18" fill="none" xmlns="http://www.w3.org/2000/svg">
<g clip-path="url(#clip0_1_828)">
<path d="M8.81555 15.8963C8.77851 15.8664 8.74787 15.8465 8.70869 15.8137C8.22566 15.3022 7.4605 14.4052 6.79366 13.2589H7.9129L7.42559 11.834H6.0912C5.73997 10.9549 5.50344 9.99095 5.50344 8.98428C5.50344 7.97761 5.74139 7.0144 6.09405 6.13454H11.319C11.5285 6.65889 11.7038 7.20889 11.8056 7.78525L13.3039 8.29821C13.2391 7.5416 13.0695 6.81777 12.8387 6.13525H15.2346C15.5844 6.93247 15.7867 7.80591 15.8202 8.72282C15.8238 8.81045 15.8259 9.10183 15.8245 9.16096L17.2251 9.64043C17.2415 9.42314 17.2586 9.20656 17.2586 8.98571C17.2593 4.2701 13.4236 0.435059 8.71011 0.435059C3.99664 0.435059 0.160889 4.2701 0.160889 8.98428C0.160889 13.6985 3.99593 17.5335 8.71011 17.5335C8.93097 17.5335 9.14897 17.5221 9.36626 17.5057L8.81555 15.8963ZM6.79366 4.70967C7.45836 3.56764 8.22779 2.66641 8.71011 2.15488C9.19172 2.66498 9.95687 3.56906 10.6202 4.70967H6.79366ZM14.3953 4.70967H12.2445C11.7294 3.67593 11.111 2.79393 10.5632 2.11284C12.1141 2.53176 13.4535 3.46006 14.3953 4.70967ZM6.84852 2.11498C6.30137 2.79393 5.68654 3.68091 5.17216 4.70967H3.02274C3.96316 3.4622 5.30111 2.53461 6.84852 2.11498ZM2.1842 6.13454H4.57799C4.27734 7.02152 4.07928 7.97761 4.07928 8.98428C4.07928 9.99095 4.27734 10.947 4.57799 11.834H2.1842C1.80091 10.9606 1.58505 9.99736 1.58505 8.98428C1.58505 7.9712 1.80091 7.00799 2.1842 6.13454ZM3.02345 13.2589H5.17287C5.69152 14.2969 6.31205 15.1746 6.86205 15.8571C5.30823 15.4389 3.96672 14.5099 3.02345 13.2589ZM17.2907 11.1679L12.9391 13.2154L10.8916 17.5656L7.56452 7.84011L17.2907 11.1679Z" fill="url(#paint0_radial_1_828)"/>
</g>
<defs>
<radialGradient id="paint0_radial_1_828" cx="0" cy="0" r="1" gradientUnits="userSpaceOnUse" gradientTransform="translate(0.653125 6.85899) rotate(21.9738) scale(18.3124 135.014)">
<stop stop-color="#0F9D41"/>
<stop offset="0.498228" stop-color="#17D75B"/>
<stop offset="1" stop-color="#0F9D41"/>
</radialGradient>
<clipPath id="clip0_1_828">
<rect width="17.0984" height="17.0984" fill="white" transform="translate(0.17627 0.450806)"/>
</clipPath>
</defs>
</svg>
