<svg width="25" height="21" viewBox="0 0 25 21" fill="none" xmlns="http://www.w3.org/2000/svg">
<path d="M23.7146 2.75611C23.3339 2.59756 22.9147 2.55588 22.5103 2.63639C22.1059 2.7169 21.7346 2.91595 21.4438 3.2082L18.75 5.90195L13.9729 1.12486C13.5822 0.7343 13.0524 0.514893 12.5 0.514893C11.9476 0.514893 11.4178 0.7343 11.0271 1.12486L6.25 5.90195L3.55625 3.2082C3.26489 2.91693 2.89372 2.71858 2.48965 2.63823C2.08558 2.55788 1.66676 2.59914 1.28614 2.75679C0.905512 2.91443 0.580172 3.18139 0.351247 3.52391C0.122321 3.86643 8.79673e-05 4.26913 0 4.68111L0 15.7082C0.00165402 17.089 0.550919 18.4128 1.52731 19.3892C2.50371 20.3656 3.82751 20.9149 5.20833 20.9165H19.7917C21.1725 20.9149 22.4963 20.3656 23.4727 19.3892C24.4491 18.4128 24.9983 17.089 25 15.7082V4.68111C25.0001 4.2691 24.878 3.86631 24.6492 3.52367C24.4204 3.18102 24.0952 2.91392 23.7146 2.75611Z" fill="url(#paint0_radial_1_912)"/>
<defs>
<radialGradient id="paint0_radial_1_912" cx="0" cy="0" r="1" gradientUnits="userSpaceOnUse" gradientTransform="translate(0.718392 8.1655) rotate(18.2249) scale(26.0934 164.693)">
<stop stop-color="#0F9D41"/>
<stop offset="0.498228" stop-color="#17D75B"/>
<stop offset="1" stop-color="#0F9D41"/>
</radialGradient>
</defs>
</svg>
