<svg width="20" height="20" viewBox="0 0 20 20" fill="none" xmlns="http://www.w3.org/2000/svg">
<path d="M10 20C15.5228 20 20 15.5228 20 10C20 4.47715 15.5228 0 10 0C4.47715 0 0 4.47715 0 10C0 15.5228 4.47715 20 10 20Z" fill="url(#paint0_linear_1_498)"/>
<path fill-rule="evenodd" clip-rule="evenodd" d="M4.5271 9.89445C7.44229 8.62434 9.38624 7.78699 10.3589 7.38246C13.136 6.22738 13.713 6.02672 14.0891 6.02008C14.1719 6.01863 14.3568 6.03914 14.4766 6.13637C14.6544 6.28059 14.6554 6.59363 14.6357 6.80082C14.4851 8.38207 13.834 12.2193 13.5027 13.9903C13.3625 14.7397 13.0865 14.991 12.8193 15.0155C12.2386 15.069 11.7976 14.6318 11.2351 14.2631C10.355 13.6861 9.8578 13.327 9.00346 12.764C8.01616 12.1134 8.6562 11.7558 9.21885 11.1714C9.36612 11.0185 11.9248 8.69117 11.9743 8.48004C11.9805 8.45363 11.9862 8.35519 11.9278 8.30324C11.8693 8.25129 11.783 8.26902 11.7207 8.28316C11.6324 8.3032 10.2264 9.23254 7.50268 11.0711C7.10358 11.3452 6.7421 11.4787 6.41823 11.4717C6.06116 11.464 5.37436 11.2698 4.86378 11.1039C4.23753 10.9003 3.73979 10.7927 3.78315 10.447C3.80573 10.2668 4.0537 10.0827 4.5271 9.89445Z" fill="white"/>
<defs>
<linearGradient id="paint0_linear_1_498" x1="10" y1="0" x2="10" y2="19.8438" gradientUnits="userSpaceOnUse">
<stop stop-color="#2AABEE"/>
<stop offset="1" stop-color="#229ED9"/>
</linearGradient>
</defs>
</svg>
