<svg width="40" height="40" viewBox="0 0 40 40" fill="none" xmlns="http://www.w3.org/2000/svg">
<g clip-path="url(#clip0_1_868)">
<path fill-rule="evenodd" clip-rule="evenodd" d="M20.0012 0C8.95591 0 0.0012207 8.95469 0.0012207 20C0.0012207 31.0453 8.95591 40 20.0012 40C31.0465 40 40.0012 31.0453 40.0012 20C40.0012 8.95469 31.0465 0 20.0012 0ZM29.2715 13.6016C28.9708 16.7641 27.6684 24.4383 27.0059 27.9805C26.7254 29.4797 26.1731 29.982 25.6387 30.0312C24.4778 30.1383 23.5958 29.2633 22.4708 28.5258C20.7106 27.3719 19.7161 26.6539 18.0075 25.5281C16.0325 24.2266 17.3129 23.5117 18.4379 22.343C18.7325 22.0367 23.8497 17.382 23.9489 16.9602C23.9614 16.907 23.9731 16.7102 23.8559 16.6063C23.7387 16.5023 23.5661 16.5383 23.4418 16.5664C23.2653 16.6063 20.4528 18.4648 15.0059 22.1422C14.2075 22.6906 13.4848 22.957 12.8364 22.9437C12.1223 22.9281 10.7489 22.5398 9.72778 22.2078C8.47544 21.8008 7.48013 21.5852 7.56685 20.8937C7.61138 20.5336 8.10747 20.1656 9.05435 19.7891C14.8848 17.2484 18.7723 15.5742 20.7176 14.7648C26.2722 12.4548 27.4262 12.0531 28.1785 12.0398C29.1208 12.0232 29.3483 12.801 29.2715 13.6016Z" fill="white"/>
</g>
<defs>
<clipPath id="clip0_1_868">
<rect width="40" height="40" fill="white"/>
</clipPath>
</defs>
</svg>
