<svg width="25" height="25" viewBox="0 0 25 25" fill="none" xmlns="http://www.w3.org/2000/svg">
<g clip-path="url(#clip0_1_953)">
<path d="M20.7749 2.75199L12.4999 0.00927734L4.22492 2.75199C3.60145 2.95867 3.05896 3.35655 2.6745 3.8891C2.29004 4.42166 2.08317 5.06182 2.08325 5.71865V12.4999C2.08325 20.3374 11.6666 24.6655 12.077 24.8457L12.4458 25.0093L12.8291 24.8822C13.2416 24.7447 22.9166 21.4343 22.9166 12.4999V5.71865C22.9167 5.06182 22.7098 4.42166 22.3253 3.8891C21.9409 3.35655 21.3984 2.95867 20.7749 2.75199ZM12.9624 14.5718C12.7803 14.7551 12.5636 14.9004 12.3249 14.9993C12.0862 15.0982 11.8302 15.1487 11.5718 15.1478H11.5374C11.2738 15.1438 11.0137 15.0863 10.7729 14.9789C10.532 14.8715 10.3155 14.7163 10.1364 14.5228L7.73429 12.0228L9.23742 10.5832L11.5749 13.0207L16.9718 7.62386L18.4447 9.09678L12.9624 14.5718Z" fill="url(#paint0_radial_1_953)"/>
</g>
<defs>
<radialGradient id="paint0_radial_1_953" cx="0" cy="0" r="1" gradientUnits="userSpaceOnUse" gradientTransform="translate(2.68191 9.38427) rotate(25.8351) scale(22.9473 191.236)">
<stop stop-color="#0F9D41"/>
<stop offset="0.498228" stop-color="#17D75B"/>
<stop offset="1" stop-color="#0F9D41"/>
</radialGradient>
<clipPath id="clip0_1_953">
<rect width="25" height="25" fill="white"/>
</clipPath>
</defs>
</svg>
